<svg width="469" height="434" viewBox="0 0 469 434" fill="none" xmlns="http://www.w3.org/2000/svg">
<path d="M-112.157 335C-112.049 362.846 -102.957 390.013 -82.1988 409.757C-67.948 423.315 -46.8447 433.219 -22.6776 431.815C13.7177 429.761 45.8387 408.361 70.2191 385.465C86.0112 370.668 101.942 356.359 118.06 342.734C126.026 336 134 329.399 141.983 322.933C177.663 293.907 219.509 277.374 269.466 261.286C290.429 254.545 312.454 247.606 332.977 239.802C360.215 229.436 393.229 212.256 402.947 194.094C404.348 191.457 405.498 188.767 406.388 186.049C407.655 182.259 408.643 178.472 410.467 174.195C415.327 162.732 426.696 149.067 437.78 135.824C455.967 114.178 470.888 88.8122 465.975 65.159C460.391 38.2392 435.462 19.4192 405.237 10.0238C384.788 3.7057 362.347 0.883805 339.185 1.71802C315.052 2.56411 290.565 7.81961 264.676 12.8477C215.406 22.4091 165.19 35.9679 126.268 63.0401C97.7858 82.8261 74.2318 108.625 42.9198 128.577C3.00166 153.932 -45.8235 165.715 -69.9139 197.465C-80.9287 211.996 -83.8731 228.339 -89.3185 245.555C-98.5289 274.575 -112.267 305.334 -112.157 335Z" stroke="#B5964D" stroke-opacity="0.1" stroke-width="3" stroke-miterlimit="10"/>
</svg>
