<svg width="641" height="730" viewBox="0 0 641 730" fill="none" xmlns="http://www.w3.org/2000/svg">
<path d="M-283.732 603.958C-284.096 640.953 -268.006 675.906 -237.9 699.967C-217.317 716.451 -189.47 727.666 -157.583 728.414C-101.894 729.736 -44.5855 711.28 5.75596 684.86C37.1484 668.341 66.9989 649.761 94.9316 629.356C108.405 619.514 121.227 609.344 133.225 598.962C191.098 548.655 257.386 528.928 334.31 505.663C377.915 492.482 424.711 476.979 466.133 458.336C518.854 434.742 592.275 387.162 584.782 340.041C583.461 333.035 580.997 326.331 577.448 320.086C572.634 310.983 566.938 302.189 564.368 291.967C557.428 264.529 574.53 231.54 593.65 201.786C624.145 154.276 656.332 97.6377 626.723 51.7195C601.814 13.1178 542.828 -0.256455 485.859 1.54927C448.352 2.67938 410.376 8.9078 373.541 19.9701C335.32 31.631 299.723 50.8113 259.138 61.7878C181.974 82.6643 102.156 91.5876 30.6361 122.668C-16.1374 143.054 -63.7097 171.902 -109.614 201.872C-168.372 240.257 -223.637 279.377 -235.794 333.448C-243.1 365.946 -234.306 397.431 -237.998 431.102C-244.229 488.635 -282.978 546.106 -283.732 603.958Z" stroke="#B5964D" stroke-opacity="0.1" stroke-width="3" stroke-miterlimit="10"/>
</svg>
