<svg width="623" height="700" viewBox="0 0 623 700" fill="none" xmlns="http://www.w3.org/2000/svg">
<path d="M-266.567 576.359C-266.91 612.471 -251.464 646.57 -222.377 670.228C-202.415 686.409 -175.25 697.479 -144.147 698.032C-90.2335 699.035 -35.5184 680.31 12.268 654.176C42.1164 637.824 70.5608 619.688 97.3017 599.96C110.209 590.423 122.557 580.622 134.151 570.635C189.806 522.454 253.635 503.048 327.825 480.56C369.188 468.005 413.5 453.37 452.823 435.811C502.999 413.559 572.36 369.026 566.611 324.772C565.587 318.19 563.5 311.867 560.398 305.951C556.191 297.386 551.184 289.04 549.022 279.464C543.264 253.634 559.858 222.597 578.12 194.457C607.459 149.536 637.708 96.1187 610.695 52.3408C587.636 14.9745 532.129 1.02252 477.858 1.66304C442.05 2.07302 405.646 7.41013 370.217 17.4444C333.321 28.0091 298.863 45.7691 259.748 56.1535C185.371 75.9109 108.445 85.1983 40.2451 115.971C-4.72042 136.264 -49.8771 164.85 -94.3215 193.802C-151.205 230.883 -205.985 267.26 -219.168 319.116C-226.963 349.839 -219.194 379.789 -223.102 411.814C-229.645 466.521 -266.041 521.359 -266.567 576.359Z" stroke="#B5964D" stroke-opacity="0.1" stroke-width="3" stroke-miterlimit="10"/>
</svg>
