<svg width="554" height="579" viewBox="0 0 554 579" fill="none" xmlns="http://www.w3.org/2000/svg">
<path d="M-197.859 467.009C-198.017 499.45 -185.381 530.482 -159.932 552.399C-142.522 567.419 -118.035 577.915 -90.0283 577.654C-43.9567 577.222 0.783882 557.4 38.0975 532.693C61.667 517.093 84.7491 500.472 106.613 483.585C117.333 475.288 127.697 466.93 137.704 458.511C184.471 418.858 238.527 400.67 301.995 381.04C334.279 371.051 368.671 359.817 399.632 346.621C439.578 329.661 492.775 297.309 493.944 264.622C494.011 259.824 493.354 255.126 491.988 250.627C490.226 244.192 487.859 237.897 487.503 230.638C486.45 211.199 500.697 187.87 515.792 166.371C540.097 131.82 563.215 91.0756 546.435 56.0146C530.829 23.4439 489.147 7.13509 445.673 3.25387C416.626 0.686945 386.431 2.4025 356.506 8.3197C325.292 14.5504 295.26 26.7629 262.021 34.7791C198.809 49.9911 133.681 61.0733 78.5412 90.3084C40.8642 110.295 5.32872 137.742 -33.2727 162.669C-82.6249 194.534 -135.35 220.051 -152.794 262.903C-162.388 286.46 -158.995 310.335 -163.599 335.765C-171.308 379.081 -197.688 423.219 -197.859 467.009Z" stroke="#B5964D" stroke-opacity="0.1" stroke-width="3" stroke-miterlimit="10"/>
</svg>
