<svg width="814" height="891" viewBox="0 0 814 891" fill="none" xmlns="http://www.w3.org/2000/svg">
<path d="M71.5868 779.095C90.2711 766.38 107.89 752.654 124.282 738.044C204.4 666.409 295.104 643.678 398.941 613.097C465.261 593.557 536.758 569.336 599.18 539.942C677.365 503.057 791.346 425.003 766.511 348.986C757.283 320.716 729.933 300.096 718.125 272.733C699.391 229.335 722.352 177.056 749.415 130.673C792.197 57.3688 843.551 -32.0322 787.346 -98.8359C744.123 -150.188 650.008 -157.24 566.311 -144.015C512.078 -135.539 458.578 -120.267 407.867 -98.7881C355.39 -76.3648 308.702 -43.2745 253.376 -26.3336C148.279 5.86397 38.9914 10.8522 -65.2386 45.2933C-213.592 94.2734 -397.05 195.016 -401.857 332.411C-403.603 382.521 -384.882 429.541 -386.858 479.657C-390.213 565.72 -454.045 650.012 -455.527 735.963C-456.908 813.718 -390.479 881.434 -292.791 888.019C-171.962 896.239 -31.2825 849.327 71.5868 779.095Z" stroke="#B5964D" stroke-opacity="0.1" stroke-width="3" stroke-miterlimit="10"/>
</svg>
