<svg width="537" height="549" viewBox="0 0 537 549" fill="none" xmlns="http://www.w3.org/2000/svg">
<path d="M-180.739 439.358C-180.859 470.892 -168.932 501.137 -144.421 522.634C-127.631 537.351 -103.821 547.72 -76.5822 547.239C-32.4507 546.475 9.76402 526.363 44.4394 501.988C66.4452 486.554 88.103 470.391 108.817 454.139C118.974 446.157 128.857 438.156 138.464 430.133C183.074 392.643 234.637 374.75 295.455 355.853C325.468 346.508 357.39 336.147 386.288 324.033C423.705 308.345 472.865 279.031 475.731 249.299C476.076 244.938 475.784 240.638 474.862 236.485C473.692 230.583 472.008 224.794 472.08 218.129C472.217 200.285 485.907 178.95 500.156 159.023C523.233 127.065 544.673 89.4694 530.3 56.6151C516.633 25.2525 478.427 8.44153 437.535 3.45922C410.193 0.145995 381.551 0.951894 352.993 5.83803C323.214 11.0134 294.277 21.82 262.503 29.2273C202.133 43.3407 139.979 54.8914 88.0768 83.713C52.2011 103.664 19.0872 130.791 -18.0623 154.712C-65.5268 185.278 -117.608 208.004 -136.239 248.673C-146.225 270.37 -143.977 292.757 -148.778 316.563C-156.725 356.976 -180.605 398.445 -180.739 439.358Z" stroke="#B5964D" stroke-opacity="0.1" stroke-width="3" stroke-miterlimit="10"/>
</svg>
