<svg width="520" height="520" viewBox="0 0 520 520" fill="none" xmlns="http://www.w3.org/2000/svg">
<path d="M-163.592 412.765C-163.644 443.374 -152.429 472.859 -128.853 493.908C-112.701 508.346 -89.5592 518.575 -63.0959 517.887C-20.9044 516.79 18.8017 496.365 50.9153 472.409C71.3577 457.142 91.5912 441.438 111.152 425.848C120.757 418.177 130.195 410.52 139.355 402.912C181.678 367.522 230.874 349.968 288.945 331.769C316.687 323.069 346.108 313.599 372.934 302.533C407.767 288.218 452.891 261.943 457.507 235.064C458.12 231.138 458.193 227.237 457.725 223.431C457.162 218.067 456.145 212.779 456.659 206.712C457.973 190.458 471.042 170.988 484.569 152.799C506.408 123.399 526.091 88.8934 514.223 58.3268C502.496 28.0976 467.675 10.7663 429.417 4.73218C403.788 0.664279 376.698 0.565734 349.504 4.44149C321.174 8.44627 293.384 17.8213 263.084 24.6536C205.441 37.6112 146.252 49.6424 97.6237 78.0485C63.5886 97.9331 32.9203 124.779 -2.84093 147.685C-48.4092 176.941 -99.8086 196.92 -119.672 235.374C-129.957 255.276 -128.962 276.179 -133.92 298.331C-142.214 335.847 -163.517 374.661 -163.592 412.765Z" stroke="#B5964D" stroke-opacity="0.1" stroke-width="3" stroke-miterlimit="10"/>
</svg>
