<svg width="589" height="639" viewBox="0 0 589 639" fill="none" xmlns="http://www.w3.org/2000/svg">
<path d="M-232.19 521.107C-232.455 555.378 -218.419 587.965 -191.12 610.756C-172.429 626.351 -146.592 637.131 -117.048 637.28C-67.0961 637.513 -17.3483 618.284 25.1818 592.879C51.9158 576.881 77.5525 559.633 101.924 541.25C113.739 532.338 125.108 523.248 135.894 514.05C187.119 470.138 246.063 451.327 314.909 430.244C351.729 418.977 391.095 406.071 426.243 390.673C471.318 371.073 532.568 332.62 530.286 294.152C529.793 288.477 528.416 282.978 526.187 277.777C523.189 270.272 519.499 262.98 518.25 254.537C514.852 231.905 530.248 204.781 546.94 179.906C573.797 140.206 600.406 93.1204 578.549 53.6703C559.217 18.7391 510.67 3.60309 461.734 1.99708C429.306 0.920342 396.013 4.44707 363.348 12.4191C329.302 20.8047 297.034 35.7977 260.857 44.9979C192.058 62.4885 121.087 72.6563 59.3755 102.683C18.0532 122.8 -22.2832 150.828 -63.8657 177.753C-117.002 212.227 -170.827 243.215 -186.051 290.526C-194.787 317.651 -189.176 344.583 -193.421 373.306C-200.474 422.3 -231.861 471.788 -232.19 521.107Z" stroke="#B5964D" stroke-opacity="0.1" stroke-width="3" stroke-miterlimit="10"/>
</svg>
