<svg width="710" height="798" viewBox="0 0 710 798" fill="none" xmlns="http://www.w3.org/2000/svg">
<path d="M-352.445 660.381C-352.952 701.062 -334.093 739.065 -300.286 764.874C-277.174 782.526 -246.57 794.374 -211.611 795.823C-148.244 798.64 -80.8605 781.17 -20.0928 753.44C17.4024 736.294 52.8914 715.949 85.6404 692.828C101.087 681.92 115.798 670.343 129.687 658.166C196.471 599.324 272.547 578.505 360.2 552.202C412.911 536.54 469.574 517.494 519.343 494.586C582.273 465.63 671.977 405.878 657.467 347.197C655.296 338.263 650.829 330.278 645.813 322.499C638.59 311.264 630.246 300.476 625.871 287.861C614.214 254.043 633.691 213.353 655.925 176.982C691.333 119.221 731.092 49.5114 690.937 -4.86243C658.679 -48.5064 585.679 -59.4084 518.042 -53.0907C473.844 -48.9972 429.676 -39.1427 387.317 -23.9242C343.347 -7.98164 303.324 16.7478 256.837 30.1289C168.525 55.528 76.9094 62.7754 -7.6911 95.2955C-61.7701 116.13 -118.941 145.959 -170.674 179.96C-236.996 223.533 -293.902 273.381 -302.186 336.615C-307.358 376.205 -294.49 413.852 -297.476 454.107C-302.61 523.083 -351.396 591.28 -352.445 660.381Z" stroke="#B5964D" stroke-opacity="0.1" stroke-width="3" stroke-miterlimit="10"/>
</svg>
