<svg width="762" height="844" viewBox="0 0 762 844" fill="none" xmlns="http://www.w3.org/2000/svg">
<path d="M-403.997 698.192C-404.442 741.763 -384.122 781.336 -347.077 809.043C-322.059 827.589 -289.546 839.863 -252.283 841.943C-183.128 845.853 -108.211 829.027 -39.5817 800.361C2.41186 782.744 42.1312 761.082 78.5453 735.935C95.6083 724.127 111.77 711.48 126.907 698.09C200.361 632.845 283.77 611.032 379.491 582.633C439.048 565.048 503.087 543.384 559.171 517.198C629.671 484.31 731.561 415.387 711.895 348.041C708.925 337.79 703.28 328.651 697.009 319.78C687.946 306.953 677.579 294.612 671.893 280.251C656.731 241.596 677.921 195.176 702.569 153.8C741.669 88.2471 787.191 8.70221 739.043 -51.8817C701.29 -99.3612 617.669 -108.444 542.057 -98.555C492.835 -92.2902 443.994 -79.7265 397.467 -61.3604C349.317 -42.1581 305.93 -13.1921 255.069 1.91796C158.375 30.7277 57.9468 36.8021 -36.4762 70.2953C-95.9708 91.3951 -160.471 122.025 -216.531 159.054C-288.44 206.565 -346.55 264.318 -352.025 334.531C-355.517 379.392 -339.635 421.711 -342.186 466.886C-346.42 544.416 -402.713 620.651 -403.997 698.192Z" stroke="#B5964D" stroke-opacity="0.1" stroke-width="3" stroke-miterlimit="10"/>
</svg>
