<svg width="797" height="875" viewBox="0 0 797 875" fill="none" xmlns="http://www.w3.org/2000/svg">
<path d="M-438.379 723.403C-438.783 768.809 -417.3 809.961 -378.293 838.504C-351.953 857.639 -318.152 870.235 -279.208 872.718C-206.281 877.42 -126.272 861.025 -52.4679 831.674C-7.47529 813.785 35.0741 791.241 73.9196 764.71C92.0393 752.299 109.154 738.941 125.116 724.753C203.002 655.238 291.282 632.826 392.426 602.961C456.41 584.057 525.493 560.699 585.76 532.369C661.376 496.833 771.325 421.806 748.225 348.67C744.714 337.543 738.294 327.638 731.18 318.022C720.894 304.129 709.163 290.822 702.609 275.24C685.052 233.433 707.448 183.087 733.683 138.419C775.231 67.6919 824.652 -18.4246 771.121 -83.1481C729.715 -133.216 639.125 -140.935 558.107 -128.822C505.538 -121.091 453.586 -106.723 404.268 -86.2765C353.23 -64.9378 307.65 -33.2493 253.799 -16.8831C151.535 14.1824 45.2421 19.5889 -55.7568 53.6307C-118.864 75.0071 -188.154 106.1 -247.173 145.121C-322.831 195.193 -381.621 258.227 -385.256 333.122C-387.592 381.479 -369.822 426.93 -371.963 475.404C-375.628 558.64 -436.946 640.223 -438.379 723.403Z" stroke="#B5964D" stroke-opacity="0.1" stroke-width="3" stroke-miterlimit="10"/>
</svg>
