<svg width="503" height="491" viewBox="0 0 503 491" fill="none" xmlns="http://www.w3.org/2000/svg">
<path d="M-146.491 387.16C-146.489 416.838 -135.977 445.553 -113.326 466.187C-97.8084 480.316 -75.3441 490.418 -49.6398 489.498C-9.37481 488.074 27.8005 467.343 57.3569 443.703C76.2443 428.591 95.0451 413.358 113.461 398.419C122.513 391.058 131.465 383.765 140.229 376.54C180.326 343.287 227.062 326.055 282.449 308.563C307.925 300.523 334.911 291.879 359.608 281.915C391.939 268.882 433.013 245.64 439.321 221.698C440.197 218.211 440.629 214.717 440.607 211.269C440.391 206.279 440.61 201.231 441.261 196.159C443.755 181.511 456.247 163.968 468.968 147.441C489.588 120.62 507.608 89.1943 498.131 60.9039C488.396 31.7826 456.956 13.9602 421.391 6.74531C397.476 1.92565 371.93 0.923972 346.085 3.7925C319.179 6.78312 292.443 14.8579 263.655 21.0387C208.808 32.8658 152.591 45.394 107.203 73.3572C75.0251 93.1513 46.6666 119.71 12.4211 141.619C-31.2676 169.588 -81.8868 186.781 -103.072 223.047C-113.646 241.142 -113.91 260.545 -119.038 281.039C-127.583 315.767 -146.434 351.88 -146.491 387.16Z" stroke="#B5964D" stroke-opacity="0.1" stroke-width="3" stroke-miterlimit="10"/>
</svg>
