<svg width="779" height="860" viewBox="0 0 779 860" fill="none" xmlns="http://www.w3.org/2000/svg">
<path d="M-421.19 710.79C-421.617 755.284 -400.712 795.651 -362.677 823.776C-337.036 842.596 -303.856 855.085 -265.742 857.34C-194.683 861.705 -117.218 845.043 -45.9896 816.03C-2.48995 798.281 38.6463 776.175 76.272 750.329C93.8856 738.208 110.542 725.189 126.103 711.38C201.776 644.009 287.61 621.922 386.023 592.806C447.789 574.567 514.346 552.062 572.53 524.792C645.618 490.576 751.51 418.614 730.116 348.377C726.873 337.679 720.854 328.162 714.159 318.91C704.481 305.556 693.419 292.749 687.33 277.759C670.942 237.556 692.752 189.149 718.215 146.097C758.534 77.963 806.015 -4.85677 755.155 -67.5181C715.594 -116.293 628.516 -124.684 550.171 -113.701C499.291 -106.676 448.916 -93.1988 401.009 -73.7965C351.31 -53.5495 306.844 -23.246 254.424 -7.5161C154.948 22.43 51.58 28.1075 -46.1307 61.9354C-107.442 83.1396 -174.317 114.046 -231.819 151.994C-305.684 200.899 -364.121 261.275 -368.64 333.827C-371.554 380.436 -354.749 424.314 -357.078 471.151C-361.017 551.531 -419.825 630.431 -421.19 710.79Z" stroke="#B5964D" stroke-opacity="0.1" stroke-width="3" stroke-miterlimit="10"/>
</svg>
