<svg width="420" height="352" viewBox="0 0 420 352" fill="none" xmlns="http://www.w3.org/2000/svg">
<path d="M-60.716 261.478C-60.3614 286.581 -53.4734 311.445 -35.4561 329.932C-23.1011 342.604 -3.98075 352.158 17.8553 350.062C48.4861 347.141 72.965 324.647 89.6881 302.863C100.094 289.19 111.978 276.151 125.179 263.923C131.489 258.113 138.014 252.593 144.755 247.363C173.775 224.742 208.405 209.227 250.293 195.18C264.497 190.411 279.122 186.051 293.368 181.418C313.022 175.08 334.082 166.972 348.744 157.454C351.074 155.946 353.27 154.479 355.427 152.969C358.523 150.779 361.514 148.491 364.673 145.994C374.011 138.686 382.947 131.057 391.446 123.137C406.013 109.254 417.016 92.8939 418.186 76.2575C419.886 52.4627 403.733 32.267 381.45 19.6001C366.268 11.0359 348.464 5.44666 329.209 3.19994C309.312 0.833597 288.136 1.90847 266.644 5.15262C225.716 11.3413 184.615 26.5478 155.115 52.15C132.276 71.9361 115.665 96.7232 88.7347 113.553C54.4363 135.024 9.14808 139.361 -20.1311 163.706C-31.529 173.155 -38.6755 184.658 -44.6987 196.947C-54.7467 217.491 -60.9531 240.222 -60.716 261.478Z" stroke="#B5964D" stroke-opacity="0.1" stroke-width="3" stroke-miterlimit="10"/>
</svg>
