<svg width="693" height="783" viewBox="0 0 693 783" fill="none" xmlns="http://www.w3.org/2000/svg">
<path d="M-335.272 647.78C-335.724 687.531 -317.556 724.769 -284.692 750.142C-262.209 767.503 -232.375 779.159 -198.131 780.512C-136.653 782.925 -71.803 765.222 -13.6217 737.797C22.3497 720.812 56.4186 700.915 87.9466 678.479C102.866 667.869 117.107 656.647 130.594 644.872C195.146 588.151 268.785 567.646 353.723 542.069C404.171 527.039 458.357 508.849 506.06 486.978C566.411 459.413 652.102 402.665 639.297 346.883C637.394 338.378 633.397 330.806 628.731 323.366C622.101 312.664 614.385 302.362 610.494 290.361C600.029 258.139 618.928 219.377 640.381 184.633C674.619 129.457 712.414 63.004 674.92 10.7042C644.51 -31.6754 575.016 -43.1913 510.012 -37.9728C467.492 -34.6195 424.88 -25.6722 383.912 -11.4956C341.359 3.36886 302.449 26.7134 257.44 39.4903C171.902 63.7651 83.2536 71.4191 1.91282 103.594C-50.343 124.266 -105.142 153.968 -155.415 186.951C-219.857 229.238 -276.366 276.414 -285.594 337.343C-291.313 375.167 -279.45 411.27 -282.574 449.893C-288.02 515.968 -334.325 581.548 -335.272 647.78Z" stroke="#B5964D" stroke-opacity="0.1" stroke-width="3" stroke-miterlimit="10"/>
</svg>
