<svg width="436" height="378" viewBox="0 0 436 378" fill="none" xmlns="http://www.w3.org/2000/svg">
<path d="M-77.8461 284.963C-77.6098 310.98 -69.9714 336.61 -51.0226 355.512C-38.0295 368.475 -18.2581 378.133 4.34776 376.291C36.8992 373.639 63.9639 351.512 83.198 329.375C95.3096 315.378 108.543 301.946 122.797 289.182C129.663 283.047 136.675 277.17 143.831 271.552C175.057 246.814 212.08 230.933 256.696 216.147C273.137 210.726 290.232 205.484 306.591 199.837C328.762 192.138 353.771 181.029 366.854 168.636C368.911 166.683 370.733 164.839 372.467 162.949C374.933 160.229 377.257 157.441 379.973 154.347C387.182 146.087 397.381 136.246 406.949 126.34C422.711 109.861 434.913 90.4864 434.179 71.5328C433.221 46.6946 414.337 26.9744 389.448 15.3838C372.484 7.58126 353.129 2.9319 332.584 1.72488C311.274 0.418356 288.998 2.89237 266.059 6.732C222.338 14.0434 178.189 28.6846 145.555 54.7859C120.73 74.6062 101.83 99.752 73.402 117.637C37.2291 140.399 -9.35299 147.069 -36.7908 174.02C-48.0784 185.116 -53.7994 198.295 -59.6584 212.25C-69.3066 235.491 -78.0827 260.915 -77.8461 284.963Z" stroke="#B5964D" stroke-opacity="0.1" stroke-width="3" stroke-miterlimit="10"/>
</svg>
