<svg width="405" height="326" viewBox="0 0 405 326" fill="none" xmlns="http://www.w3.org/2000/svg">
<path d="M243.909 174.133C275.342 163.365 308.327 156.459 338.493 142.941C368.659 129.423 396.896 107.003 402.268 80.937C406.95 58.2426 393.248 37.5266 373.536 23.755C319.682 -14.0026 218.393 -1.44667 164.678 49.5763C143.809 69.3993 129.438 93.8261 103.922 109.692C71.496 129.872 27.5189 132.139 -3.68058 153.595C-34.2485 174.605 -44.1172 208.395 -43.6119 238.011C-43.2059 262.222 -37.0236 286.306 -19.9196 304.357C-8.18833 316.742 10.2652 326.218 31.3329 323.868C60.0529 320.664 81.9553 297.79 96.1675 276.358C130.169 225.038 176.846 197.11 243.909 174.133Z" stroke="#B5964D" stroke-opacity="0.1" stroke-width="3" stroke-miterlimit="10"/>
</svg>
