<svg width="727" height="813" viewBox="0 0 727 813" fill="none" xmlns="http://www.w3.org/2000/svg">
<path d="M-369.662 672.967C-370.132 714.708 -350.974 752.703 -315.902 779.585C-292.188 797.517 -260.966 809.5 -225.222 811.266C-159.902 814.421 -90.0076 797.191 -26.6196 769.108C12.3791 751.819 49.2739 731.041 83.2307 707.245C99.2179 696.039 114.416 684.108 128.727 671.531C197.723 610.545 276.195 589.397 366.595 562.397C421.579 546.091 480.712 526.171 532.606 502.143C598.031 471.917 691.821 409.081 675.575 347.521C673.132 338.14 668.273 329.801 662.796 321.597C654.948 309.847 645.902 298.531 641.117 285.344C628.291 249.924 648.36 207.312 671.403 169.249C708.022 108.919 749.721 35.9122 706.89 -20.5406C672.876 -65.4305 596.29 -75.8236 525.955 -68.2196C480.098 -63.4013 434.392 -52.6297 390.673 -36.3382C345.301 -19.3125 304.142 6.80876 256.199 20.7871C165.106 47.3224 70.523 54.1631 -17.3425 87.011C-73.2039 107.902 -132.825 138.041 -186.01 173.048C-254.179 217.889 -311.439 270.394 -318.847 335.982C-323.459 377.345 -309.601 416.528 -312.457 458.428C-317.217 530.192 -368.498 601.076 -369.662 672.967Z" stroke="#B5964D" stroke-opacity="0.1" stroke-width="3" stroke-miterlimit="10"/>
</svg>
