<svg width="745" height="829" viewBox="0 0 745 829" fill="none" xmlns="http://www.w3.org/2000/svg">
<path d="M-386.819 685.592C-387.273 728.245 -367.537 767.026 -331.486 794.324C-307.102 812.562 -275.235 824.691 -238.695 826.612C-171.455 830.153 -99.0471 813.013 -33.0136 784.737C7.48713 767.275 45.8025 746.057 81.007 721.597C97.5366 710.089 113.22 697.799 127.947 684.814C199.175 621.707 280.121 600.243 373.176 572.527C430.419 555.571 492.032 534.766 546.008 509.677C614.007 478.118 711.814 412.249 693.862 347.79C691.151 337.98 685.907 329.229 680.063 320.71C671.594 308.417 661.871 296.612 656.694 282.83C642.676 245.813 663.331 201.261 687.164 161.559C724.993 98.6598 768.632 22.3568 723.14 -36.1701C687.252 -82.4093 607.226 -92.1341 534.161 -83.3454C486.602 -77.8165 439.308 -66.1474 394.171 -48.8047C347.368 -30.7059 305.098 -3.15373 255.712 11.381C161.822 39.0476 64.2775 45.4985 -26.8392 78.6792C-88.7497 101.424 -147.512 130.854 -201.257 166.034C-271.339 212.209 -329.016 267.364 -335.411 335.237C-339.481 378.349 -324.636 419.099 -327.331 462.624C-331.811 537.308 -385.608 610.856 -386.819 685.592Z" stroke="#B5964D" stroke-opacity="0.1" stroke-width="3" stroke-miterlimit="10"/>
</svg>
