<svg width="486" height="462" viewBox="0 0 486 462" fill="none" xmlns="http://www.w3.org/2000/svg">
<path d="M-129.29 360.582C-129.25 389.354 -119.433 417.285 -97.7255 437.483C-82.8371 451.32 -61.0447 461.312 -36.1303 460.179C2.20834 458.428 36.8615 437.38 63.8219 414.086C81.1546 399.129 98.5314 384.354 115.794 370.078C124.308 363.033 132.742 356.098 141.096 349.275C178.989 318.153 223.327 301.205 276.018 284.414C299.231 277.006 323.744 269.217 346.342 260.337C376.104 248.682 413.16 228.453 421.186 207.384C422.329 204.323 423.123 201.226 423.558 198.135C424.023 193.651 424.814 189.152 425.928 184.661C429.598 171.604 441.512 155.986 453.435 141.109C472.841 116.884 489.302 88.5148 482.113 62.5228C474.343 34.4992 446.233 16.1827 413.427 7.88729C391.232 2.32087 367.235 0.405365 342.732 2.24416C317.188 4.1837 291.587 10.8223 264.243 16.4471C212.177 27.1388 158.958 40.1739 116.774 67.6961C86.4359 87.4981 60.4825 113.685 27.689 134.588C-14.1459 161.306 -63.9636 175.782 -86.527 209.794C-97.3491 226.097 -98.9619 243.982 -104.22 262.832C-113.054 294.609 -129.355 328.103 -129.29 360.582Z" stroke="#B5964D" stroke-opacity="0.1" stroke-width="3" stroke-miterlimit="10"/>
</svg>
