<svg width="572" height="609" viewBox="0 0 572 609" fill="none" xmlns="http://www.w3.org/2000/svg">
<path d="M-215.065 493.557C-215.269 526.915 -201.943 558.714 -175.573 581.074C-157.519 596.39 -132.356 607.014 -103.574 606.96C-55.5841 606.868 -8.32621 587.347 31.6068 562.288C56.7732 546.447 81.022 529.624 104.241 511.898C115.504 503.297 126.395 494.559 136.831 485.776C185.83 444.002 242.323 425.5 308.491 405.14C343.025 394.513 379.93 382.467 412.962 368.178C455.487 349.902 512.726 314.453 512.135 278.923C511.923 273.679 510.903 268.574 509.096 263.719C506.719 256.757 503.697 249.967 502.877 242.116C500.669 221.08 515.467 195.814 531.381 172.658C556.906 135.527 581.802 91.639 562.501 54.3596C545.036 20.64 499.967 4.92668 453.731 2.20176C422.968 0.356287 391.195 2.95673 359.868 9.88382C327.229 17.2038 296.084 30.8006 261.376 39.4088C195.368 55.7515 127.321 66.3851 68.888 96.0135C29.451 116.051 -8.49236 143.823 -48.5679 169.763C-99.8492 202.911 -153.123 231.209 -169.41 276.263C-178.581 301.587 -174.077 326.999 -178.543 354.135C-185.881 400.193 -214.769 447.012 -215.065 493.557Z" stroke="#B5964D" stroke-opacity="0.1" stroke-width="3" stroke-miterlimit="10"/>
</svg>
