<svg width="675" height="767" viewBox="0 0 675 767" fill="none" xmlns="http://www.w3.org/2000/svg">
<path d="M-318.092 635.167C-318.492 674.017 -301.033 710.468 -269.085 735.415C-247.219 752.444 -218.051 764.007 -184.618 765.154C-125.069 767.194 -62.7205 749.239 -7.16454 722.149C27.2881 705.318 59.9526 685.864 90.2839 664.112C104.646 653.819 118.386 642.97 131.44 631.616C193.765 577.033 264.925 556.707 347.227 531.988C395.39 517.523 447.119 500.286 492.731 479.487C550.54 453.236 632.185 399.54 621.107 346.649C619.225 338.764 616.037 331.262 611.62 324.325C605.597 314.162 598.549 304.361 595.1 292.958C585.799 262.322 604.101 225.54 624.781 192.411C657.753 139.783 693.676 76.6062 658.819 26.4619C630.244 -14.6585 564.248 -26.8053 501.939 -22.7233C461.103 -20.1101 420.05 -12.0744 380.473 1.05275C339.309 14.8291 301.492 36.8417 258.008 48.9718C175.266 72.1155 89.5707 80.1712 11.4893 112.002C-38.8864 132.577 -91.3094 161.927 -140.162 193.923C-202.694 234.905 -258.805 279.41 -268.987 338.046C-275.253 374.103 -264.385 408.652 -267.767 445.615C-273.416 508.858 -317.192 571.704 -318.092 635.167Z" stroke="#B5964D" stroke-opacity="0.1" stroke-width="3" stroke-miterlimit="10"/>
</svg>
