<svg width="606" height="670" viewBox="0 0 606 670" fill="none" xmlns="http://www.w3.org/2000/svg">
<path d="M-249.39 548.765C-249.701 583.955 -234.91 617.241 -206.737 640.518C-187.413 656.42 -160.907 667.34 -130.524 667.705C-78.6664 668.318 -26.3945 649.333 18.7467 623.587C47.0487 607.402 74.0965 589.707 99.661 570.651C112.015 561.425 123.885 551.976 135.075 542.383C188.504 496.34 249.899 477.22 321.437 455.418C360.515 443.503 402.398 429.756 439.603 413.259C487.214 392.328 552.542 350.805 548.576 309.508C547.769 303.357 545.969 297.432 543.22 291.874C539.629 283.835 535.256 276.038 533.565 266.996C528.999 242.762 545.006 213.663 562.462 187.185C590.539 144.905 618.974 94.6328 594.552 53.0238C573.339 16.8759 521.258 2.29727 469.72 1.84564C435.599 1.51087 400.751 5.94008 366.704 14.9387C331.246 24.4189 297.879 40.8013 260.219 50.5886C188.638 69.2151 114.717 78.9529 49.7291 109.348C6.5851 129.553 -36.1614 157.861 -79.1542 185.807C-134.07 221.574 -188.418 255.307 -202.562 304.807C-210.849 333.738 -204.138 362.172 -208.216 392.538C-215.05 444.413 -248.946 496.582 -249.39 548.765Z" stroke="#B5964D" stroke-opacity="0.1" stroke-width="3" stroke-miterlimit="10"/>
</svg>
