<svg width="658" height="752" viewBox="0 0 658 752" fill="none" xmlns="http://www.w3.org/2000/svg">
<path d="M-300.908 622.571C-301.263 660.503 -284.507 696.183 -253.503 720.694C-232.3 737.481 -203.762 748.828 -171.1 749.784C-113.473 751.467 -53.6495 733.268 -0.696651 706.507C32.2319 689.828 63.4921 670.81 92.6264 649.733C106.452 639.737 119.709 629.237 132.341 618.277C192.454 565.837 261.171 545.808 340.796 521.812C386.673 507.987 435.939 491.611 479.452 471.895C534.715 446.987 612.182 396.356 602.971 346.332C601.367 338.887 598.537 331.785 594.549 325.196C589.142 315.56 582.764 306.26 579.752 295.439C571.634 266.411 589.383 231.519 609.24 200.077C641.001 150.019 675.029 90.124 642.789 42.0674C616.055 2.1944 553.561 -10.5372 493.919 -7.60194C454.749 -5.71767 415.24 1.42086 377.04 13.5159C337.333 26.2294 300.623 46.7944 258.56 58.375C178.614 80.3876 95.8633 88.8567 21.0159 120.378C-27.5656 140.856 -77.6047 170.038 -124.91 200.942C-185.534 240.572 -241.224 282.4 -252.41 338.739C-259.201 373.023 -249.367 406.049 -252.898 441.345C-258.828 501.744 -300.09 561.925 -300.908 622.571Z" stroke="#B5964D" stroke-opacity="0.1" stroke-width="3" stroke-miterlimit="10"/>
</svg>
