<svg width="452" height="407" viewBox="0 0 452 407" fill="none" xmlns="http://www.w3.org/2000/svg">
<path d="M-95.0199 310.453C-94.8296 337.382 -86.4269 363.785 -66.6046 383.11C-52.9867 396.361 -32.5329 406.103 -9.1787 404.521C25.3251 402.121 54.9522 380.441 76.7037 357.892C90.4935 343.593 105.084 329.756 120.419 316.434C127.819 310.004 135.302 303.776 142.867 297.747C176.29 270.903 215.753 254.642 263.032 239.258C281.732 233.177 301.28 227.076 319.722 220.36C344.403 211.358 373.434 197.17 384.832 181.909C386.5 179.675 388.012 177.382 389.358 175.043C391.232 171.791 392.887 168.504 395.161 164.813C401.162 154.985 411.952 143.199 422.268 131.614C439.229 112.557 452.753 90.1674 449.966 68.8869C446.624 43.0139 424.794 23.7504 397.241 13.244C378.531 6.18823 357.638 2.45506 335.797 2.26527C313.069 2.04702 289.742 5.92314 265.287 10.333C218.785 18.7721 171.594 32.8657 135.82 59.45C109.205 79.2266 87.9739 104.717 58.0948 123.614C20.0465 147.668 -27.7064 156.836 -53.4019 186.238C-64.5778 199.026 -68.8591 213.812 -74.5116 229.373C-83.8831 255.507 -95.1341 283.613 -95.0199 310.453Z" stroke="#B5964D" stroke-opacity="0.1" stroke-width="3" stroke-miterlimit="10"/>
</svg>
